PathFileType	4	(X/Y/Z)	C:/Users/opensim2020/Desktop/walking_exp_matlab/subject06_walking12_static.trc	
DataRate	CameraRate	NumFrames	NumMarkers	Units	OrigDataRate	OrigDataStartFrame	OrigNumFrames	
100.00	100.00	4	48	mm	100.00	46	363	
Frame#	Time	LFHD			RFHD			LBHD			RBHD			C7			T10			CLAV			STRN			RBAK			LSHO			LUPA			LELB			LFRM			LWRA			LWRB			LFIN			RSHO			RUPA			RELB			RFRM			RWRA			RWRB			RFIN			LASI			RASI			LPSI			RPSI			LTHI			LKNE			LTIB			LANK			LHEE			LTOE			RTHI			RKNE			RTIB			RANK			RHEE			RTOE			*39			*40			*41			*42			*43			*44			*45			*46			*47			
		X1	Y1	Z1	X2	Y2	Z2	X3	Y3	Z3	X4	Y4	Z4	X5	Y5	Z5	X6	Y6	Z6	X7	Y7	Z7	X8	Y8	Z8	X9	Y9	Z9	X10	Y10	Z10	X11	Y11	Z11	X12	Y12	Z12	X13	Y13	Z13	X14	Y14	Z14	X15	Y15	Z15	X16	Y16	Z16	X17	Y17	Z17	X18	Y18	Z18	X19	Y19	Z19	X20	Y20	Z20	X21	Y21	Z21	X22	Y22	Z22	X23	Y23	Z23	X24	Y24	Z24	X25	Y25	Z25	X26	Y26	Z26	X27	Y27	Z27	X28	Y28	Z28	X29	Y29	Z29	X30	Y30	Z30	X31	Y31	Z31	X32	Y32	Z32	X33	Y33	Z33	X34	Y34	Z34	X35	Y35	Z35	X36	Y36	Z36	X37	Y37	Z37	X38	Y38	Z38	X39	Y39	Z39	X40	Y40	Z40	X41	Y41	Z41	X42	Y42	Z42	X43	Y43	Z43	X44	Y44	Z44	X45	Y45	Z45	X46	Y46	Z46	X47	Y47	Z47	X48	Y48	Z48	

46	0.450	392.90356	-662.48810	1677.85156	406.78668	-531.61090	1664.75500	524.33032	-677.21344	1619.18420	536.20508	-548.13214	1612.25867	526.14728	-618.38239	1460.35840	557.04041	-602.48083	1133.71033	413.25458	-608.58020	1388.46033	369.98901	-611.00134	1215.23706	601.29700	-536.09851	1291.41516	459.94156	-773.85822	1415.79407	444.27618	-850.70874	1216.09607	434.42828	-869.41681	1105.30469	381.42905	-900.92383	966.38293	297.00247	-866.35999	865.63690	355.34167	-904.09363	849.80090	295.98264	-910.30804	781.06171	470.39661	-453.12332	1420.08020	478.21588	-353.65396	1226.07202	443.59708	-323.51962	1112.83899	415.71655	-286.38705	1000.48047	339.43521	-286.14792	864.99152	397.65439	-253.00034	867.12158	353.51208	-233.04318	798.01343	379.58563	-703.64783	973.89368	382.70505	-484.15610	981.82239	536.09326	-678.68842	1005.38208	532.06842	-512.48871	1011.47003	482.25589	-781.50043	666.59430	501.41531	-770.92206	503.39224	545.38525	-795.18701	252.53801	543.33350	-771.61322	74.85020	582.94647	-729.65485	56.33222	395.28073	-770.45453	39.16061	478.75296	-414.81165	650.89063	493.93665	-430.57983	525.73383	562.41638	-407.90372	270.02335	575.04980	-436.59308	78.90826	612.80756	-479.65701	51.44857	418.48016	-431.77106	35.87949	500.03302	-613.71460	1712.68640																								 
47	0.460	392.74771	-662.50647	1677.80566	406.54477	-531.60632	1664.72632	524.21564	-677.20630	1619.20691	536.07471	-548.16669	1612.33264	526.12000	-618.36011	1460.35132	557.17462	-602.65796	1133.93372	413.20535	-608.58563	1388.42957	369.96155	-610.98700	1215.18140	601.24390	-536.03040	1291.44250	459.94620	-773.84558	1415.76892	444.16714	-850.69037	1216.07800	434.19373	-869.48309	1105.32471	381.11981	-900.99976	966.42535	296.59854	-866.51093	865.73816	354.92517	-904.21869	849.86768	295.46109	-910.32092	781.12372	470.29883	-453.10303	1420.07849	478.03058	-353.56631	1226.10803	443.39954	-323.68643	1112.74939	415.48557	-286.27380	1000.55353	339.19305	-286.07739	865.05078	397.36603	-252.82233	867.20508	353.18933	-232.71770	798.12994	379.56091	-703.60791	973.87646	382.84229	-484.17188	981.72467	536.09326	-678.66772	1005.37592	532.06708	-512.44299	1011.45886	482.24350	-781.47717	666.59760	501.38055	-770.91010	503.39032	545.36273	-795.18115	252.55278	543.50153	-771.80707	74.98411	582.89716	-729.66980	56.34354	395.27481	-770.47632	39.13741	478.82211	-414.80988	650.89856	493.89078	-430.27078	525.85199	562.45007	-407.92294	270.02142	574.99683	-436.62189	78.85650	612.81390	-479.71335	51.42207	418.42224	-431.58237	35.97907	499.94925	-613.80127	1712.68298																								 
48	0.470	392.59326	-662.53375	1677.76709	406.39166	-531.59009	1664.70337	524.08496	-677.21210	1619.22974	535.89703	-548.12744	1612.36243	526.04053	-618.29724	1460.34119	557.02563	-602.46295	1133.75354	413.17151	-608.57874	1388.39844	369.94318	-611.00006	1215.14783	601.19678	-535.96509	1291.46350	459.96173	-773.84106	1415.73621	444.06723	-850.71820	1216.06042	433.97687	-869.49335	1105.31433	380.79944	-901.05554	966.47681	296.20773	-866.55371	865.83606	354.53293	-904.36444	850.02869	295.00516	-910.45227	781.23743	470.23972	-453.07669	1420.05481	477.86508	-353.46933	1226.10852	443.18741	-323.58151	1112.78564	415.24857	-286.16089	1000.59943	339.04413	-286.15848	865.12354	397.08694	-252.68443	867.28021	352.90408	-232.51724	798.20825	379.50388	-703.54150	973.88263	382.73755	-484.06296	981.76752	536.05530	-678.61603	1005.39075	532.08911	-512.41150	1011.44617	482.20511	-781.47089	666.61646	501.35727	-770.88422	503.40765	545.33398	-795.20490	252.55531	543.31384	-771.60291	74.87293	582.91516	-729.66382	56.33343	395.28424	-770.50464	39.15572	478.83521	-414.76651	650.87915	493.88965	-430.23340	525.84747	562.46155	-407.94016	269.99524	575.02051	-436.60413	78.85275	612.80353	-479.66666	51.38886	418.33270	-431.79538	36.05483	499.67499	-613.72131	1712.70508																								 
49	0.480	392.43591	-662.55188	1677.74829	406.25153	-531.60754	1664.69409	523.96942	-677.20105	1619.26404	535.78387	-548.12598	1612.40283	525.97174	-618.21948	1460.36218	557.14148	-602.57800	1133.91174	413.11865	-608.57318	1388.41150	369.94754	-610.94818	1215.12085	601.13928	-535.86877	1291.42163	459.97809	-773.80542	1415.70801	443.97711	-850.71094	1216.03442	433.76651	-869.50830	1105.32178	380.48422	-901.06995	966.54431	295.84656	-866.61652	865.95483	354.15311	-904.44775	850.10211	294.54120	-910.59857	781.38208	470.11472	-453.06464	1420.05139	477.69852	-353.42725	1226.13477	442.97314	-323.50125	1112.82910	415.02817	-286.06677	1000.67499	338.83328	-286.04013	865.21405	396.81192	-252.51215	867.33081	352.68069	-232.37231	798.31049	379.44861	-703.49957	973.90326	382.77222	-483.99182	981.76648	536.03821	-678.57941	1005.37488	532.09625	-512.36975	1011.41418	482.13373	-781.37946	666.57800	501.32642	-770.83173	503.39944	545.30273	-795.17700	252.54794	543.32513	-771.60815	74.88693	582.92560	-729.64069	56.33814	395.29980	-770.48157	39.16330	478.83405	-414.72046	650.86719	493.80353	-430.15298	525.89789	562.44122	-407.91315	269.99121	575.01569	-436.62048	78.83963	612.81274	-479.69742	51.40556	418.50851	-431.73611	35.83494	499.49609	-613.71686	1712.73706																								 
